<svg xmlns="http://www.w3.org/2000/svg" width="225.3" height="59.18" viewBox="0 0 225.3 59.18"><path d="M18.89 12.53Q22.8 12.53 25.98 13.84Q29.16 15.14 31.42 17.52Q33.67 19.9 34.88 23.14Q36.1 26.38 36.1 30.31Q36.1 34.1 34.9 37.3Q33.7 40.49 31.44 42.85Q29.18 45.22 26.04 46.51Q22.9 47.81 19.03 47.81Q15.17 47.81 12 46.5Q8.83 45.19 6.55 42.82Q4.27 40.44 3.08 37.18Q1.9 33.91 1.9 29.95Q1.9 26.21 3.08 23.02Q4.27 19.82 6.53 17.47Q8.78 15.12 11.9 13.82Q15.02 12.53 18.89 12.53ZM28.56 34.7Q28.56 31.46 27.96 28.52Q27.36 25.58 26.3 23.1Q25.25 20.62 23.84 18.77Q22.44 16.92 20.77 15.9Q19.1 14.88 17.28 14.88Q14.9 14.88 13.16 16.16Q11.42 17.45 10.46 19.82Q9.5 22.2 9.5 25.61Q9.5 28.82 10.09 31.8Q10.68 34.78 11.72 37.25Q12.77 39.72 14.18 41.58Q15.6 43.44 17.26 44.47Q18.91 45.5 20.71 45.5Q23.09 45.5 24.85 44.23Q26.62 42.96 27.59 40.54Q28.56 38.11 28.56 34.7ZM47.14 34.32Q47.14 30.84 48.13 28.5Q49.13 26.16 50.71 25Q52.3 23.83 54.12 23.83Q56.35 23.83 57.56 25.12Q58.78 26.4 58.78 28.78Q58.78 30.89 57.9 31.94Q57.02 33 55.61 33Q54.22 33 53.48 32.24Q52.75 31.49 52.75 30.1L52.75 29.26Q52.75 28.49 52.4 28.12Q52.06 27.74 51.31 27.74Q50.45 27.74 49.69 28.44Q48.94 29.14 48.44 30.55Q47.95 31.97 47.95 34.2ZM47.62 25.37L47.95 31.03L47.95 43.3Q47.95 43.94 48.22 44.26Q48.48 44.57 49.18 44.69L51.24 45Q51.77 45.1 52.02 45.34Q52.27 45.58 52.27 46.01Q52.27 46.44 51.95 46.69Q51.62 46.94 51.02 46.94L39.89 46.94Q39.24 46.94 38.95 46.69Q38.66 46.44 38.66 46.03Q38.66 45.7 38.86 45.46Q39.05 45.22 39.48 45.07L40.46 44.83Q40.87 44.69 41.09 44.36Q41.3 44.04 41.3 43.34L41.3 29.26Q41.3 28.7 41.12 28.46Q40.94 28.22 40.56 28.13L39.24 28.06Q38.86 27.96 38.69 27.76Q38.52 27.55 38.52 27.24Q38.52 26.88 38.72 26.64Q38.93 26.4 39.53 26.21L44.11 24.62Q45.19 24.19 45.71 24.06Q46.22 23.93 46.54 23.93Q47.02 23.93 47.26 24.26Q47.5 24.6 47.62 25.37ZM61.43 46.94Q60.81 46.94 60.55 46.69Q60.28 46.44 60.28 46.03Q60.28 45.7 60.5 45.46Q60.71 45.22 61.12 45.05L62.11 44.83Q62.54 44.69 62.73 44.35Q62.92 44.02 62.92 43.32L62.92 16.56Q62.92 16.01 62.74 15.77Q62.56 15.53 62.18 15.46L60.88 15.36Q60.5 15.26 60.33 15.06Q60.16 14.86 60.16 14.54Q60.16 14.18 60.37 13.96Q60.57 13.73 61.17 13.51L65.83 11.83Q66.69 11.54 67.21 11.4Q67.72 11.26 68.15 11.26Q68.87 11.26 69.23 11.65Q69.59 12.05 69.59 12.7L69.59 43.32Q69.59 43.99 69.8 44.33Q70 44.66 70.41 44.83L71.32 45.07Q72.04 45.38 72.04 45.96Q72.04 46.94 70.79 46.94ZM67.65 36.77L77.47 28.61Q78.33 27.89 78.22 27.28Q78.11 26.66 77.13 26.38L76.29 26.16Q75.86 26.04 75.7 25.84Q75.55 25.63 75.55 25.3Q75.55 24.84 75.86 24.6Q76.17 24.36 76.72 24.36L85.12 24.36Q85.67 24.36 85.99 24.59Q86.3 24.82 86.3 25.25Q86.3 25.68 86.05 25.94Q85.79 26.21 84.95 26.4Q83.66 26.71 82.66 27.25Q81.67 27.79 80.23 28.97L68.35 38.64ZM75.91 30.89L84.38 43.32Q84.93 44.11 85.36 44.42Q85.79 44.74 86.54 44.98Q87.02 45.22 87.26 45.48Q87.5 45.74 87.5 46.06Q87.5 46.46 87.19 46.7Q86.87 46.94 86.32 46.94L76.48 46.94Q75.98 46.94 75.69 46.69Q75.4 46.44 75.4 46.03Q75.4 45.74 75.55 45.54Q75.69 45.34 76.07 45.19L76.89 44.98Q77.54 44.81 77.59 44.42Q77.63 44.04 77.03 43.13L71.44 34.87ZM102.87 43.97L102.87 43.49L102.42 43.42L102.42 29.02Q102.42 27.31 101.58 26.38Q100.74 25.44 99.2 25.44Q97.78 25.44 97 26.08Q96.22 26.71 96.22 27.58L96.22 29.66Q96.22 31.13 95.28 31.91Q94.33 32.69 92.62 32.69Q91.18 32.69 90.43 31.99Q89.67 31.3 89.67 30.05Q89.67 28.56 90.9 27.13Q92.12 25.7 94.5 24.77Q96.87 23.83 100.38 23.83Q104.74 23.83 106.88 25.61Q109.02 27.38 109.02 30.41L109.02 42.89Q109.02 43.61 109.29 43.94Q109.57 44.28 110.07 44.28Q110.58 44.28 110.85 44.03Q111.13 43.78 111.32 43.49Q111.44 43.32 111.57 43.21Q111.7 43.1 111.9 43.1Q112.16 43.1 112.29 43.31Q112.42 43.51 112.42 43.85Q112.42 44.62 111.88 45.47Q111.34 46.32 110.23 46.92Q109.11 47.52 107.48 47.52Q105.34 47.52 104.11 46.56Q102.87 45.6 102.87 43.97ZM88.64 41.93Q88.64 38.98 91.27 37.16Q93.9 35.35 98.72 35.35Q100.26 35.35 101.48 35.62Q102.7 35.88 103.59 36.31L103.11 37.73Q102.32 37.34 101.46 37.13Q100.59 36.91 99.61 36.91Q97.64 36.91 96.54 37.96Q95.43 39 95.43 40.85Q95.43 42.67 96.38 43.64Q97.33 44.62 98.84 44.62Q100.11 44.62 101.29 44.03Q102.46 43.44 103.26 42.41L103.76 43.68Q102.44 45.53 100.26 46.52Q98.07 47.52 95.6 47.52Q92.5 47.52 90.57 45.98Q88.64 44.45 88.64 41.93ZM123.27 25.82Q121.59 25.82 120.67 26.66Q119.74 27.5 119.74 28.78Q119.74 29.57 120.09 30.23Q120.44 30.89 121.45 31.42Q122.46 31.94 124.33 32.45Q127.95 33.19 129.94 34.34Q131.94 35.5 132.72 36.98Q133.5 38.47 133.5 40.34Q133.5 43.63 131.17 45.58Q128.84 47.52 124.45 47.52Q122.84 47.52 121.84 47.24Q120.85 46.97 120.22 46.7Q119.6 46.44 119.12 46.44Q118.64 46.44 118.29 46.7Q117.94 46.97 117.62 47.24Q117.3 47.52 116.84 47.52Q116.46 47.52 116.25 47.3Q116.05 47.09 115.86 46.51L114.32 41.47Q114.06 40.7 114.16 40.2Q114.27 39.7 114.78 39.53Q115.28 39.31 115.65 39.5Q116.02 39.7 116.36 40.2Q117.46 42.14 118.69 43.31Q119.91 44.47 121.26 44.99Q122.6 45.5 124.06 45.5Q126.1 45.5 127.12 44.65Q128.14 43.8 128.14 42.41Q128.14 41.54 127.71 40.85Q127.28 40.15 126.1 39.58Q124.93 39 122.7 38.5Q119.65 37.8 117.84 36.74Q116.02 35.69 115.24 34.19Q114.46 32.69 114.46 30.7Q114.46 28.66 115.52 27.11Q116.58 25.56 118.46 24.68Q120.34 23.81 122.84 23.81Q124.42 23.81 125.41 24.11Q126.39 24.41 127.02 24.7Q127.64 24.98 128.17 24.98Q128.7 24.98 129.06 24.7Q129.42 24.41 129.75 24.11Q130.09 23.81 130.52 23.81Q130.83 23.81 131.07 24.05Q131.31 24.29 131.41 24.91L132.58 29.62Q132.78 30.41 132.68 30.89Q132.58 31.37 132.08 31.56Q131.58 31.78 131.22 31.52Q130.86 31.27 130.45 30.67Q128.94 28.03 127.05 26.93Q125.17 25.82 123.27 25.82ZM137.23 26.54L136.05 26.23Q135.5 26.04 135.28 25.82Q135.07 25.61 135.07 25.27Q135.07 24.84 135.37 24.6Q135.67 24.36 136.17 24.36L137.68 24.36Q138.21 24.36 138.57 24.17Q138.93 23.98 139.34 23.45L142.12 19.68Q142.6 19.1 143.02 18.84Q143.44 18.58 143.88 18.58Q144.36 18.58 144.61 18.88Q144.86 19.18 144.86 19.7L144.86 40.2Q144.86 41.9 145.53 42.8Q146.2 43.7 147.43 43.7Q148.24 43.7 148.74 43.38Q149.23 43.06 149.53 42.61Q149.83 42.17 150.09 41.8Q150.36 41.42 150.76 41.35Q151.08 41.33 151.29 41.56Q151.51 41.78 151.51 42.29Q151.46 43.7 150.6 44.87Q149.73 46.03 148.22 46.74Q146.71 47.45 144.74 47.45Q141.69 47.45 139.96 45.91Q138.24 44.38 138.24 41.28L138.24 27.91Q138.24 27.31 138.01 27.02Q137.78 26.74 137.23 26.54ZM142.29 26.57L142.29 24.36L150.19 24.36Q150.69 24.36 150.99 24.58Q151.29 24.79 151.29 25.2Q151.29 25.78 150.72 26.17Q150.14 26.57 148.84 26.57ZM175.14 32.9Q175.14 34.1 174.47 34.74Q173.8 35.38 172.5 35.38L157.53 35.38L157.53 33.67L167.3 33.67Q168.45 33.67 168.45 32.62Q168.45 29.35 167.3 27.68Q166.14 26.02 164.25 26.02Q162.76 26.02 161.62 26.92Q160.48 27.82 159.86 29.52Q159.23 31.22 159.23 33.67Q159.23 38.35 161.39 40.69Q163.55 43.03 167.13 43.03Q169.26 43.03 170.88 42.13Q172.5 41.23 173.32 39.62Q173.73 39.17 173.96 39.02Q174.18 38.88 174.45 38.88Q174.78 38.88 174.95 39.19Q175.12 39.5 175.1 39.96Q174.98 42.02 173.67 43.75Q172.36 45.48 170.09 46.5Q167.82 47.52 164.9 47.52Q161.49 47.52 158.82 46.12Q156.16 44.71 154.66 42.14Q153.16 39.58 153.16 36.14Q153.16 32.52 154.6 29.75Q156.04 26.98 158.73 25.4Q161.42 23.83 165.11 23.83Q168.28 23.83 170.52 25Q172.77 26.16 173.96 28.2Q175.14 30.24 175.14 32.9ZM186.05 34.32Q186.05 30.84 187.04 28.5Q188.04 26.16 189.62 25Q191.21 23.83 193.03 23.83Q195.26 23.83 196.48 25.12Q197.69 26.4 197.69 28.78Q197.69 30.89 196.81 31.94Q195.94 33 194.52 33Q193.13 33 192.4 32.24Q191.66 31.49 191.66 30.1L191.66 29.26Q191.66 28.49 191.32 28.12Q190.97 27.74 190.22 27.74Q189.36 27.74 188.6 28.44Q187.85 29.14 187.36 30.55Q186.86 31.97 186.86 34.2ZM186.53 25.37L186.86 31.03L186.86 43.3Q186.86 43.94 187.13 44.26Q187.39 44.57 188.09 44.69L190.15 45Q190.68 45.1 190.93 45.34Q191.18 45.58 191.18 46.01Q191.18 46.44 190.86 46.69Q190.54 46.94 189.94 46.94L178.8 46.94Q178.15 46.94 177.86 46.69Q177.58 46.44 177.58 46.03Q177.58 45.7 177.77 45.46Q177.96 45.22 178.39 45.07L179.38 44.83Q179.78 44.69 180 44.36Q180.22 44.04 180.22 43.34L180.22 29.26Q180.22 28.7 180.04 28.46Q179.86 28.22 179.47 28.13L178.15 28.06Q177.77 27.96 177.6 27.76Q177.43 27.55 177.43 27.24Q177.43 26.88 177.64 26.64Q177.84 26.4 178.44 26.21L183.02 24.62Q184.1 24.19 184.62 24.06Q185.14 23.93 185.45 23.93Q185.93 23.93 186.17 24.26Q186.41 24.6 186.53 25.37ZM213.8 43.3L210.29 49.85L200.6 28.3Q200.16 27.29 199.7 26.89Q199.23 26.5 198.32 26.23Q197.88 26.09 197.7 25.87Q197.52 25.66 197.52 25.3Q197.52 24.84 197.84 24.6Q198.15 24.36 198.7 24.36L209.45 24.36Q210 24.36 210.32 24.6Q210.63 24.84 210.63 25.3Q210.63 25.66 210.42 25.87Q210.22 26.09 209.72 26.21L208.76 26.4Q207.7 26.62 207.52 27.18Q207.34 27.74 207.92 29.14ZM209.31 50.88L210.87 46.94L211.68 45.36L218 29.47Q218.57 28.03 218.38 27.38Q218.19 26.74 217.08 26.5L216.08 26.28Q215.6 26.16 215.37 25.91Q215.14 25.66 215.14 25.3Q215.14 24.84 215.46 24.6Q215.79 24.36 216.34 24.36L223.04 24.36Q223.61 24.36 223.92 24.6Q224.24 24.84 224.24 25.3Q224.24 25.61 224.04 25.82Q223.85 26.04 223.37 26.26Q222.27 26.57 221.68 27.13Q221.09 27.7 220.59 29.04L211.97 50.4Q210.68 53.54 209.57 55.3Q208.47 57.05 207.2 57.73Q205.92 58.42 204.1 58.42Q201.39 58.42 199.8 56.95Q198.22 55.49 198.22 53.4Q198.22 51.86 198.96 51.01Q199.71 50.16 200.96 50.16Q202.11 50.16 202.77 50.89Q203.43 51.62 203.81 52.82L204.12 53.74Q204.32 54.6 204.74 55.03Q205.16 55.46 205.73 55.46Q206.28 55.46 206.79 55.12Q207.29 54.77 207.89 53.76Q208.49 52.75 209.31 50.88Z" fill="#f5f1ea"/></svg>
