<svg xmlns="http://www.w3.org/2000/svg" width="52" height="52" viewBox="0 0 52 52"><g transform="translate(0 0) scale(1)"><path d="M32.86 7.21A20 20 0 0 1 40.03 11.74M45.36 20.98A20 20 0 0 1 45.36 31.02M40.03 40.26A20 20 0 0 1 31.33 45.28M20.67 45.28A20 20 0 0 1 11.97 40.26M6.64 31.02A20 20 0 0 1 6.64 20.98M11.97 11.74A20 20 0 0 1 19.14 7.21" fill="none" stroke="#0a0908" stroke-opacity="0.24" stroke-width="2" stroke-linecap="round"/><circle cx="43.32" cy="16" r="3.6" fill="#0a0908" fill-opacity="0.6"/><circle cx="43.32" cy="36" r="3.6" fill="#0a0908" fill-opacity="0.6"/><circle cx="26" cy="46" r="3.6" fill="#0a0908" fill-opacity="0.6"/><circle cx="8.68" cy="36" r="3.6" fill="#0a0908" fill-opacity="0.6"/><circle cx="8.68" cy="16" r="3.6" fill="#0a0908" fill-opacity="0.6"/><circle cx="26" cy="6" r="5.2" fill="#b07f2c"/></g></svg>
